<svg width="16" height="16" viewBox="0 0 16 16" fill="none" xmlns="http://www.w3.org/2000/svg"><g clip-path="url(#clip0_2283_577)" fill="#1F1C4E"><path d="M15.9532 4.69486C15.9157 3.84637 15.7785 3.26305 15.582 2.75759C15.3792 2.22106 15.0673 1.74071 14.6586 1.34139C14.2592 0.935852 13.7757 0.620733 13.2454 0.421133C12.737 0.22458 12.1567 0.0873705 11.3083 0.0499608C10.4534 0.00938288 10.1821 0 8.01401 0C5.84595 0 5.57458 0.00938288 4.72293 0.0467926C3.87445 0.0842023 3.29113 0.221534 2.78579 0.417965C2.24914 0.620733 1.76878 0.932684 1.36946 1.34139C0.963928 1.74071 0.648931 2.22423 0.449209 2.75455C0.252656 3.26305 0.115447 3.84321 0.078037 4.69169C0.0374591 5.54651 0.0280762 5.81788 0.0280762 7.98593C0.0280762 10.154 0.0374591 10.4254 0.0748688 11.277C0.112278 12.1255 0.24961 12.7088 0.446163 13.2143C0.648931 13.7508 0.963928 14.2312 1.36946 14.6305C1.76878 15.036 2.25231 15.3511 2.78262 15.5507C3.29113 15.7473 3.87128 15.8845 4.71989 15.9219C5.57141 15.9594 5.84291 15.9687 8.01096 15.9687C10.179 15.9687 10.4504 15.9594 11.302 15.9219C12.1505 15.8845 12.7338 15.7473 13.2392 15.5507C14.3124 15.1358 15.1608 14.2873 15.5758 13.2143C15.7722 12.7058 15.9095 12.1255 15.9469 11.277C15.9843 10.4254 15.9937 10.154 15.9937 7.98593C15.9937 5.81788 15.9906 5.54651 15.9532 4.69486ZM14.5151 11.2146C14.4808 11.9945 14.3498 12.4156 14.2406 12.6964C13.9723 13.3921 13.4201 13.9442 12.7245 14.2125C12.4437 14.3217 12.0195 14.4527 11.2427 14.4869C10.4004 14.5245 10.1478 14.5337 8.01718 14.5337C5.88653 14.5337 5.63076 14.5245 4.79154 14.4869C4.01166 14.4527 3.59053 14.3217 3.30977 14.2125C2.96358 14.0846 2.64846 13.8818 2.39269 13.6166C2.12753 13.3577 1.92476 13.0457 1.79681 12.6996C1.68763 12.4188 1.55663 11.9945 1.52239 11.2178C1.48486 10.3755 1.4756 10.1228 1.4756 7.99215C1.4756 5.8615 1.48486 5.60573 1.52239 4.76663C1.55663 3.98675 1.68763 3.56562 1.79681 3.28486C1.92476 2.93855 2.12753 2.62355 2.39585 2.36766C2.65468 2.1025 2.96663 1.89973 3.31294 1.7719C3.5937 1.66272 4.018 1.53173 4.79471 1.49736C5.63697 1.45995 5.8897 1.45057 8.02023 1.45057C10.154 1.45057 10.4066 1.45995 11.2459 1.49736C12.0257 1.53173 12.4469 1.66272 12.7276 1.7719C13.0738 1.89973 13.3889 2.1025 13.6447 2.36766C13.9099 2.6266 14.1126 2.93855 14.2406 3.28486C14.3498 3.56562 14.4808 3.9898 14.5151 4.76663C14.5525 5.6089 14.5619 5.8615 14.5619 7.99215C14.5619 10.1228 14.5525 10.3724 14.5151 11.2146Z"/><path d="M8.01395 3.88379C5.74927 3.88379 3.9118 5.72113 3.9118 7.98594C3.9118 10.2507 5.74927 12.0881 8.01395 12.0881C10.2788 12.0881 12.1161 10.2507 12.1161 7.98594C12.1161 5.72113 10.2788 3.88379 8.01395 3.88379ZM8.01395 10.6469C6.54474 10.6469 5.35299 9.45528 5.35299 7.98594C5.35299 6.5166 6.54474 5.32498 8.01395 5.32498C9.48329 5.32498 10.6749 6.5166 10.6749 7.98594C10.6749 9.45528 9.48329 10.6469 8.01395 10.6469Z"/><path d="M13.2361 3.72158C13.2361 4.25044 12.8073 4.67925 12.2783 4.67925C11.7495 4.67925 11.3207 4.25044 11.3207 3.72158C11.3207 3.19261 11.7495 2.76392 12.2783 2.76392C12.8073 2.76392 13.2361 3.19261 13.2361 3.72158Z"/></g><defs><clipPath id="clip0_2283_577"><path fill="#fff" d="M0 0H16V15.969H0z"/></clipPath></defs></svg>