<svg width="18" height="14" viewBox="0 0 18 14" fill="none" xmlns="http://www.w3.org/2000/svg"><g clip-path="url(#clip0_2283_581)"><path d="M17.689 2.74513C17.4686 1.78785 16.6856 1.0816 15.743 0.976249C13.5109 0.727082 11.2517 0.725782 9.00288 0.727082C6.75369 0.725782 4.4941 0.727082 2.26201 0.976249C1.31997 1.0816 0.537538 1.78785 0.317172 2.74513C0.00353033 4.10839 0 5.59651 0 7.00009C0 8.40367 0 9.89161 0.313641 11.2547C0.533636 12.2118 1.31625 12.918 2.25885 13.0236C4.49076 13.2729 6.75016 13.2742 8.99935 13.2729C11.2489 13.2742 13.5078 13.2729 15.7395 13.0236C16.6815 12.9182 17.4647 12.212 17.6851 11.2547C17.9989 9.89143 18 8.40349 18 7.00009C18 5.59651 18.0026 4.10839 17.689 2.74513ZM6.67714 9.79388C6.67714 7.80278 6.67714 5.83249 6.67714 3.8412C8.58482 4.83656 10.4799 5.82524 12.3996 6.82674C10.4858 7.81931 8.58983 8.80204 6.67714 9.79388Z" fill="#1F1C4E"/></g><defs><clipPath id="clip0_2283_581"><path fill="#fff" transform="matrix(-1 0 0 1 18 0)" d="M0 0H18V14H0z"/></clipPath></defs></svg>